<?xml version="1.0" standalone="no"?>
<!DOCTYPE svg PUBLIC "-//W3C//DTD SVG 20010904//EN"
 "http://www.w3.org/TR/2001/REC-SVG-20010904/DTD/svg10.dtd">
<svg version="1.0" xmlns="http://www.w3.org/2000/svg"
 width="216.000000pt" height="233.000000pt" viewBox="0 0 216.000000 233.000000"
 preserveAspectRatio="xMidYMid meet">

<g transform="translate(0.000000,233.000000) scale(0.100000,-0.100000)"
fill="#000000" stroke="none">
<path d="M753 1564 c-4 -11 37 -59 143 -165 l149 -149 -149 -149 c-110 -110
-147 -154 -142 -166 3 -9 13 -15 21 -13 8 2 80 68 160 148 l146 144 148 -148
c106 -106 154 -147 165 -143 9 4 16 12 16 19 0 7 -66 79 -147 160 l-148 148
148 148 c81 81 147 152 147 159 0 6 -8 14 -17 17 -13 5 -55 -31 -165 -141
l-148 -148 -148 148 c-81 81 -153 147 -160 147 -7 0 -15 -7 -19 -16z"/>
<path d="M911 80 c0 -19 3 -29 6 -22 4 10 9 9 20 -5 15 -18 14 -16 -13 35
l-14 27 1 -35z"/>
<path d="M1285 99 c-11 -16 -1 -19 13 -3 7 8 8 14 3 14 -5 0 -13 -5 -16 -11z"/>
<path d="M1335 100 c-3 -6 1 -7 9 -4 18 7 21 14 7 14 -6 0 -13 -4 -16 -10z"/>
<path d="M1385 101 c-3 -6 0 -9 7 -6 8 3 14 -4 14 -21 2 -20 -2 -24 -15 -19
-12 5 -13 3 -4 -6 17 -17 32 -2 29 28 -3 28 -20 41 -31 24z"/>
<path d="M1438 103 c6 -2 18 -2 25 0 6 3 1 5 -13 5 -14 0 -19 -2 -12 -5z"/>
<path d="M1528 91 c-8 -12 -17 -20 -19 -18 -2 1 5 -6 16 -15 27 -23 40 -17 40
17 0 35 -18 43 -37 16z m32 -16 c0 -26 -14 -33 -25 -15 -9 14 1 40 15 40 5 0
10 -11 10 -25z"/>
<path d="M1640 90 c-8 -15 -8 -20 1 -18 6 2 14 -3 17 -11 3 -10 0 -12 -14 -7
-15 6 -17 5 -6 -5 18 -19 40 4 23 25 -7 8 -10 20 -6 26 3 5 4 10 1 10 -3 0
-10 -9 -16 -20z"/>
<path d="M600 72 c0 -18 4 -32 8 -32 9 0 8 47 -1 57 -4 3 -7 -8 -7 -25z"/>
<path d="M630 77 c0 -14 4 -28 8 -31 9 -5 8 41 -1 51 -4 3 -7 -5 -7 -20z"/>
<path d="M790 77 c0 -14 4 -28 8 -31 9 -5 8 41 -1 51 -4 3 -7 -5 -7 -20z"/>
<path d="M500 80 c0 -5 7 -7 15 -4 8 4 15 8 15 10 0 2 -7 4 -15 4 -8 0 -15 -4
-15 -10z"/>
<path d="M664 75 c-7 -17 3 -35 19 -35 8 0 7 3 -2 9 -7 5 -10 14 -7 20 4 6 12
8 18 5 7 -4 8 -2 4 4 -10 16 -26 15 -32 -3z"/>
<path d="M710 70 c0 -11 2 -20 4 -20 2 0 6 9 9 20 3 11 1 20 -4 20 -5 0 -9 -9
-9 -20z"/>
<path d="M823 74 c-8 -23 12 -40 31 -25 10 8 16 9 21 1 3 -5 12 -10 18 -9 9 0
9 2 0 6 -16 6 -17 33 -1 33 6 0 8 3 5 6 -4 4 -13 1 -21 -5 -10 -8 -16 -9 -21
-1 -9 15 -25 12 -32 -6z m29 -9 c0 -5 -5 -11 -11 -13 -6 -2 -11 4 -11 13 0 9
5 15 11 13 6 -2 11 -8 11 -13z"/>
<path d="M1030 80 c0 -5 7 -7 15 -4 10 4 15 0 15 -11 0 -12 -5 -15 -17 -10
-15 5 -16 4 -5 -6 16 -17 37 3 29 25 -7 17 -37 22 -37 6z"/>
<path d="M1081 63 c2 -24 2 -25 6 -5 3 13 12 22 23 22 11 0 20 -9 23 -22 4
-20 4 -19 6 5 1 24 -3 27 -29 27 -26 0 -30 -3 -29 -27z"/>
<path d="M1355 79 c-4 -6 -5 -12 -2 -15 2 -3 7 2 10 11 7 17 1 20 -8 4z"/>
<path d="M550 48 c0 -4 4 -8 9 -8 6 0 12 4 15 8 3 5 -1 9 -9 9 -8 0 -15 -4
-15 -9z"/>
<path d="M1238 43 c6 -2 18 -2 25 0 6 3 1 5 -13 5 -14 0 -19 -2 -12 -5z"/>
</g>
</svg>
