<?xml version="1.0" standalone="no"?>
<!DOCTYPE svg PUBLIC "-//W3C//DTD SVG 20010904//EN"
 "http://www.w3.org/TR/2001/REC-SVG-20010904/DTD/svg10.dtd">
<svg version="1.0" xmlns="http://www.w3.org/2000/svg"
 width="225.000000pt" height="225.000000pt" viewBox="0 0 225.000000 225.000000"
 preserveAspectRatio="xMidYMid meet">

<g transform="translate(0.000000,225.000000) scale(0.100000,-0.100000)"
fill="#000000" stroke="none">
<path d="M354 1646 c-3 -8 -4 -25 -2 -38 l3 -23 710 0 710 0 0 35 0 35 -708 3
c-607 2 -708 0 -713 -12z"/>
<path d="M362 1158 c-15 -15 -15 -51 0 -66 17 -17 1389 -17 1406 0 15 15 15
51 0 66 -17 17 -1389 17 -1406 0z"/>
<path d="M354 656 c-3 -8 -4 -25 -2 -38 l3 -23 710 0 710 0 0 35 0 35 -708 3
c-607 2 -708 0 -713 -12z"/>
</g>
</svg>
